<svg xmlns="http://www.w3.org/2000/svg" viewBox="0 0 1024 1024" width="24" height="24">
  <path
    d="M932.571429 54.857143H91.428571c-20.228571 0-36.571429 16.342857-36.571428 36.571428v841.142858c0 20.228571 16.342857 36.571429 36.571428 36.571428h841.142858c20.228571 0 36.571429-16.342857 36.571428-36.571428V91.428571c0-20.228571-16.342857-36.571429-36.571428-36.571428z m-105.6 266.857143h-73.028572c-57.257143 0-68.342857 27.2-68.342857 67.2v88.114285h136.685714l-17.828571 137.942858h-118.857143V969.142857H543.085714V615.085714H423.885714V477.028571h119.2v-101.714285c0-118.057143 72.114286-182.4 177.485715-182.4 50.514286 0 93.828571 3.771429 106.514285 5.485714v123.314286z"
    fill="#4267b2"
  />
</svg>
