<svg xmlns="http://www.w3.org/2000/svg" viewBox="0 0 1024 1024" width="24" height="24">
  <path
    d="M962.285714 233.142857q-38.285714 56-92.571428 95.428572 0.571429 8 0.571428 24 0 74.285714-21.714285 148.285714T782.571429 642.857143 677.142857 763.142857t-147.428571 83.428572-184.571429 31.142857q-154.857143 0-283.428571-82.857143 20 2.285714 44.571428 2.285714 128.571429 0 229.142857-78.857143-60-1.142857-107.428571-36.857143T162.857143 590.285714q18.857143 2.857143 34.857143 2.857143 24.571429 0 48.571428-6.285714-64-13.142857-106-63.714286T98.285714 405.714286v-2.285715q38.857143 21.714286 83.428572 23.428572-37.714286-25.142857-60-65.714286t-22.285715-88q0-50.285714 25.142858-93.142857 69.142857 85.142857 168.285714 136.285714T505.142857 373.142857q-4.571429-21.714286-4.571428-42.285714 0-76.571429 54-130.571429T685.142857 146.285714q80 0 134.857143 58.285715 62.285714-12 117.142857-44.571429-21.142857 65.714286-81.142857 101.714286 53.142857-5.714286 106.285714-28.571429z"
    fill="#1c94e0"
  />
</svg>
